<svg width="100" height="99" viewBox="0 0 100 99" fill="none" xmlns="http://www.w3.org/2000/svg">
<path d="M41.1291 42.6515L44.6525 45.9544L35.47 55.4409C28.2475 48.9787 25.9667 46.1753 22.7948 39.5396C20.8942 34.8674 18.9979 22.9673 25.9668 12.4386C34.0445 1.27217 45.686 -0.445226 51.8632 0.0842515C68.4941 1.50975 78.3894 15.3064 78.627 28.3734C78.8171 38.8271 73.4833 45.225 70.3116 49.2804L68.2565 51.6396L49.8794 69.7125L40.8511 60.4468L58.7921 42.5584C62.0746 39.2854 65.3917 35.599 65.7433 30.9767C66.2251 24.6309 62.7113 19.526 60.8082 17.6822C51.8751 9.12922 42.0391 14.1185 38.2378 17.6822C33.2387 22.8129 33.3388 29.0742 34.7407 33.7561C35.8064 37.3148 38.419 40.1108 41.1291 42.6515Z" fill="url(#paint0_linear_902_3911)"/>
<path d="M41.3017 42.6514L44.8251 45.9543L35.6421 55.4409C26.6469 48.1722 19.8298 38.6199 21.0249 27.117C21.5683 21.8865 22.5099 16.7479 26.1389 12.4385C30.1918 7.62573 34.5179 5.24476 38.5594 4.0961C45.858 2.02167 54.2154 3.54719 59.8518 8.62733C70.1254 17.8876 66.7883 32.8406 63.915 36.6719C68.6666 27.8814 63.4446 20.0411 60.9808 17.6821C52.0477 9.12915 42.2117 14.1184 38.4104 17.6821C33.4112 22.8128 33.5113 29.0741 34.9133 33.756C35.979 37.3147 38.5915 40.1107 41.3017 42.6514Z" fill="url(#paint1_linear_902_3911)"/>
<path d="M51.3384 78.4863C45.6076 78.4863 41.8154 83.1718 38.4694 87.3066C35.6109 90.8388 32.9115 94.1741 29.6237 94.1741C26.2063 94.1741 24.1081 90.6618 24.1081 88.1439C24.1081 85.8093 26.4099 82.4167 30.0173 82.4167C33.5178 82.4167 35.3413 85.2183 35.4333 85.3619C36.0004 86.2796 37.2047 86.5684 38.1268 86.0059C39.0536 85.4412 39.3475 84.232 38.7826 83.3052C38.6627 83.1089 35.7799 78.4866 30.0173 78.4866C24.2189 78.4866 20.1777 83.5767 20.1777 88.1442C20.1777 92.8554 24.0571 98.1048 29.6234 98.1048C34.7859 98.1048 38.2118 93.8724 41.5244 89.779C44.5885 85.9935 47.4833 82.417 51.3384 82.417C53.6319 82.417 55.1393 83.1952 55.9447 84.794C56.643 86.1815 56.6423 87.7516 56.6419 88.2956C56.6419 88.6074 56.477 90.1719 55.714 91.5806C54.8435 93.1854 53.6083 93.9324 51.8234 93.9324C48.2285 93.9324 46.2863 91.5957 45.5549 90.7156C45.3646 90.4865 45.228 90.3217 45.0448 90.1652C44.2216 89.4599 42.9805 89.5545 42.2739 90.3789C41.5924 91.1741 41.6581 92.3561 42.4022 93.0716C42.4378 93.112 42.4806 93.1649 42.5315 93.2265C43.4845 94.3736 46.3829 97.8622 51.8223 97.8622C58.4333 97.8622 60.5714 91.416 60.5714 88.2687C60.5721 86.2641 60.1965 84.5007 59.4546 83.0263C58.4126 80.9559 56.158 78.4863 51.3384 78.4863Z" fill="url(#paint2_linear_902_3911)"/>
<path d="M50.9755 78.4739C45.3646 78.4739 41.6518 83.0613 38.3757 87.1096C35.5771 90.5679 32.9341 93.8334 29.7151 93.8334C26.3692 93.8334 24.315 90.3946 24.315 87.9294C24.315 85.6437 26.5685 82.3221 30.1005 82.3221C33.5278 82.3221 35.3131 85.065 35.4031 85.2056C35.9584 86.1041 37.1375 86.3869 38.0403 85.8362C38.9477 85.2833 39.2355 84.0994 38.6824 83.1919C38.565 82.9997 35.7425 78.4741 30.1005 78.4741C24.4234 78.4741 20.4668 83.4578 20.4668 87.9296C20.4668 92.5423 24.265 97.6819 29.7148 97.6819C34.7693 97.6819 38.1236 93.538 41.3669 89.5303C44.3669 85.824 47.2011 82.3223 50.9755 82.3223C53.221 82.3223 54.6968 83.0842 55.4854 84.6496C56.1691 86.0081 56.1684 87.5453 56.168 88.0779C56.168 88.3832 56.0065 89.9149 55.2596 91.2942C54.4073 92.8654 53.1979 93.5967 51.4503 93.5967C47.9307 93.5967 46.0291 91.3089 45.313 90.4473C45.1266 90.223 44.9929 90.0616 44.8136 89.9084C44.0076 89.2178 42.7925 89.3105 42.1007 90.1176C41.4334 90.8961 41.4978 92.0535 42.2262 92.754C42.2611 92.7935 42.3031 92.8454 42.3529 92.9057C43.2859 94.0287 46.1237 97.4444 51.4493 97.4444C57.922 97.4444 60.0153 91.1331 60.0153 88.0515C60.016 86.0889 59.6482 84.3624 58.9219 82.9189C57.9017 80.8917 55.6942 78.4739 50.9755 78.4739Z" fill="url(#paint3_linear_902_3911)"/>
<path d="M4.60424 95.7268L4.2173 96.3238L4.22367 96.3279L4.23014 96.332L4.60424 95.7268ZM1.73583 83.6386L2.36773 83.9655L2.36997 83.9611L1.73583 83.6386ZM4.60424 80.4629L4.98327 81.0649L4.98615 81.0631L4.60424 80.4629ZM12.5948 80.0873L12.2541 80.7118L12.257 80.7134L12.26 80.715L12.5948 80.0873ZM15.0875 82.3069L14.5 82.7081L15.7989 84.61V82.3069H15.0875ZM15.0875 72.7114V72H14.3761V72.7114H15.0875ZM17.6486 72.7114H18.36V72H17.6486V72.7114ZM17.6486 96.6147V97.3261H18.36V96.6147H17.6486ZM15.0875 96.6147H14.3761V97.3261H15.0875V96.6147ZM15.0875 93.8829H15.7989V91.626L14.5047 93.4749L15.0875 93.8829ZM12.5948 96.0683L12.26 95.4406L12.257 95.4422L12.2541 95.4438L12.5948 96.0683ZM12.5265 93.678L12.1318 93.0861L12.1283 93.0884L12.1247 93.0909L12.5265 93.678ZM14.5412 91.3218L15.1862 91.6218L15.1875 91.619L15.1888 91.6162L14.5412 91.3218ZM14.5412 84.8338L13.8961 85.1338L14.5412 84.8338ZM12.5265 82.4776L12.1247 83.0647L12.1283 83.0671L12.1318 83.0695L12.5265 82.4776ZM6.07258 82.4776L5.68486 81.8811L6.07258 82.4776ZM3.98958 84.8338L3.35031 84.5216L3.98958 84.8338ZM3.98958 91.3218L3.34754 91.6282L3.34892 91.6311L3.35031 91.634L3.98958 91.3218ZM6.07258 93.678L6.46026 93.0815L6.07258 93.678ZM8.97512 96.1764C7.42792 96.1764 6.10399 95.8176 4.97829 95.1217L4.23014 96.332C5.60863 97.1841 7.19859 97.5993 8.97512 97.5993V96.1764ZM4.99117 95.1299C3.8701 94.4032 2.99783 93.4293 2.36997 92.1945L1.1017 92.8394C1.83974 94.2909 2.87974 95.4569 4.2173 96.3238L4.99117 95.1299ZM2.36997 92.1945C1.74146 90.9585 1.42281 89.5904 1.42281 88.0778H0C0 89.7978 0.364301 91.3892 1.1017 92.8394L2.36997 92.1945ZM1.42281 88.0778C1.42281 86.5406 1.74221 85.1748 2.36771 83.9654L1.10395 83.3118C0.36355 84.7432 0 86.3368 0 88.0778H1.42281ZM2.36997 83.9611C2.99696 82.728 3.86683 81.7679 4.98327 81.0649L4.22516 79.8609C2.88299 80.7059 1.8406 81.863 1.1017 83.3162L2.36997 83.9611ZM4.98615 81.0631C6.11078 80.3474 7.43186 79.9791 8.97512 79.9791V78.5563C7.19468 78.5563 5.60184 78.9848 4.22228 79.8627L4.98615 81.0631ZM8.97512 79.9791C10.2953 79.9791 11.3789 80.2344 12.2541 80.7118L12.9354 79.4627C11.8073 78.8474 10.4777 78.5563 8.97512 78.5563V79.9791ZM12.26 80.715C13.186 81.2088 13.9291 81.8721 14.5 82.7081L15.675 81.9057C14.971 80.8749 14.0524 80.0584 12.9295 79.4596L12.26 80.715ZM15.7989 82.3069V72.7114H14.3761V82.3069H15.7989ZM15.0875 73.4228H17.6486V72H15.0875V73.4228ZM16.9372 72.7114V96.6147H18.36V72.7114H16.9372ZM17.6486 95.9033H15.0875V97.3261H17.6486V95.9033ZM15.7989 96.6147V93.8829H14.3761V96.6147H15.7989ZM14.5047 93.4749C13.9344 94.2896 13.1901 94.9445 12.26 95.4406L12.9295 96.696C14.0482 96.0994 14.9658 95.2973 15.6703 94.2908L14.5047 93.4749ZM12.2541 95.4438C11.3789 95.9212 10.2953 96.1764 8.97512 96.1764V97.5993C10.4777 97.5993 11.8073 97.3082 12.9354 96.6929L12.2541 95.4438ZM9.31659 95.2772C10.7034 95.2772 11.9213 94.9541 12.9282 94.2651L12.1247 93.0909C11.4015 93.5857 10.4795 93.8544 9.31659 93.8544V95.2772ZM12.9211 94.2699C13.9189 93.6047 14.6765 92.7177 15.1862 91.6218L13.8961 91.0218C13.4952 91.8837 12.9096 92.5675 12.1318 93.0861L12.9211 94.2699ZM15.1888 91.6162C15.6884 90.517 15.9355 89.3346 15.9355 88.0778H14.5127C14.5127 89.143 14.3045 90.1233 13.8935 91.0274L15.1888 91.6162ZM15.9355 88.0778C15.9355 86.8005 15.6893 85.6154 15.1862 84.5337L13.8961 85.1338C14.3036 86.0099 14.5127 86.9875 14.5127 88.0778H15.9355ZM15.1862 84.5337C14.6765 83.4379 13.9189 82.5509 12.9211 81.8857L12.1318 83.0695C12.9096 83.5881 13.4952 84.2719 13.8961 85.1338L15.1862 84.5337ZM12.9282 81.8905C11.9213 81.2015 10.7034 80.8784 9.31659 80.8784V82.3012C10.4795 82.3012 11.4015 82.5699 12.1247 83.0647L12.9282 81.8905ZM9.31659 80.8784C7.94842 80.8784 6.72768 81.2033 5.68486 81.8811L6.46026 83.0741C7.23865 82.5681 8.18058 82.3012 9.31659 82.3012V80.8784ZM5.68486 81.8811C4.66588 82.5435 3.88475 83.4273 3.35031 84.5216L4.62881 85.146C5.0505 84.2825 5.65808 83.5955 6.46026 83.0741L5.68486 81.8811ZM3.35031 84.5216C2.82076 85.6059 2.56106 86.7953 2.56106 88.0778H3.98389C3.98389 86.9927 4.20225 86.0194 4.62881 85.146L3.35031 84.5216ZM2.56106 88.0778C2.56106 89.3398 2.82169 90.5265 3.34754 91.6282L4.63159 91.0154C4.20133 90.1138 3.98389 89.1378 3.98389 88.0778H2.56106ZM3.35031 91.634C3.88475 92.7283 4.66588 93.6121 5.68486 94.2745L6.46026 93.0815C5.65808 92.5601 5.0505 91.8731 4.62881 91.0096L3.35031 91.634ZM5.68486 94.2745C6.72768 94.9523 7.94842 95.2772 9.31659 95.2772V93.8544C8.18058 93.8544 7.23865 93.5875 6.46026 93.0815L5.68486 94.2745ZM62.7177 96.6147H62.0063V97.3261H62.7177V96.6147ZM62.7177 79.5409V78.8295H62.0063V79.5409H62.7177ZM65.2787 79.5409H65.9901V78.8295H65.2787V79.5409ZM65.2787 82.2044H64.5673V84.3386L65.8479 82.6313L65.2787 82.2044ZM67.5325 80.1214L67.9163 80.7204L67.5325 80.1214ZM74.2595 80.1214L73.9138 80.7433L73.922 80.7478L73.9301 80.7522L74.2595 80.1214ZM76.7864 82.6142L76.1686 82.9672L76.1729 82.9747L76.1775 82.9821L76.7864 82.6142ZM77.7767 96.6147V97.3261H78.4881V96.6147H77.7767ZM75.2157 96.6147H74.5043V97.3261H75.2157V96.6147ZM73.8839 83.024L73.3624 83.508L73.3653 83.5112L73.3685 83.5143L73.8839 83.024ZM67.8398 82.2386L67.4926 81.6175L67.8398 82.2386ZM65.9617 84.0825L65.3516 83.7165L65.3499 83.7192L65.3484 83.7219L65.9617 84.0825ZM65.2787 96.6147V97.3261H65.9901V96.6147H65.2787ZM63.4291 96.6147V79.5409H62.0063V96.6147H63.4291ZM62.7177 80.2523H65.2787V78.8295H62.7177V80.2523ZM64.5673 79.5409V82.2044H65.9901V79.5409H64.5673ZM65.8479 82.6313C66.4099 81.8817 67.0978 81.245 67.9163 80.7204L67.1483 79.5225C66.1911 80.1361 65.3765 80.8881 64.7096 81.7776L65.8479 82.6313ZM67.9163 80.7204C68.6586 80.2446 69.6521 79.9791 70.9472 79.9791V78.5563C69.4646 78.5563 68.182 78.86 67.1483 79.5225L67.9163 80.7204ZM70.9472 79.9791C72.0111 79.9791 72.9964 80.2335 73.9138 80.7433L74.6049 79.4995C73.4738 78.8711 72.2505 78.5563 70.9472 78.5563V79.9791ZM73.9301 80.7522C74.8461 81.2299 75.5927 81.9592 76.1686 82.9672L77.4039 82.2612C76.705 81.0382 75.767 80.1056 74.5886 79.4907L73.9301 80.7522ZM76.1775 82.9821C76.7548 83.9379 77.0653 85.157 77.0653 86.6777H78.4881C78.4881 84.9659 78.1381 83.476 77.3951 82.2463L76.1775 82.9821ZM77.0653 86.6777V96.6147H78.4881V86.6777H77.0653ZM77.7767 95.9033H75.2157V97.3261H77.7767V95.9033ZM75.9271 96.6147V86.746H74.5043V96.6147H75.9271ZM75.9271 86.746C75.9271 85.0546 75.4373 83.6251 74.3993 82.5337L73.3685 83.5143C74.1059 84.2896 74.5043 85.3414 74.5043 86.746H75.9271ZM74.405 82.5399C73.371 81.4261 72.0261 80.8784 70.435 80.8784V82.3012C71.6665 82.3012 72.6212 82.7096 73.3624 83.508L74.405 82.5399ZM70.435 80.8784C69.3672 80.8784 68.3808 81.1211 67.4926 81.6175L68.1866 82.8596C68.8464 82.4909 69.5906 82.3012 70.435 82.3012V80.8784ZM67.4926 81.6175C66.6048 82.1136 65.8902 82.8185 65.3516 83.7165L66.5717 84.4486C66.989 83.753 67.5264 83.2286 68.1866 82.8596L67.4926 81.6175ZM65.3484 83.7219C64.8202 84.6199 64.5673 85.6471 64.5673 86.7802H65.9901C65.9901 85.8644 66.1925 85.0932 66.5746 84.4432L65.3484 83.7219ZM64.5673 86.7802V96.6147H65.9901V86.7802H64.5673ZM65.2787 95.9033H62.7177V97.3261H65.2787V95.9033ZM83.7308 96.6147H83.0194V97.3261H83.7308V96.6147ZM83.7308 72.7114V72H83.0194V72.7114H83.7308ZM86.2919 72.7114H87.0033V72H86.2919V72.7114ZM86.2919 88.0095H85.5805V89.7624L86.802 88.5053L86.2919 88.0095ZM94.5215 79.5409V78.8295H94.2205L94.011 79.0451L94.5215 79.5409ZM98.1069 79.5409L98.6049 80.049L99.8492 78.8295H98.1069V79.5409ZM91.2433 86.268L90.7453 85.7599L90.3106 86.1857L90.6638 86.6809L91.2433 86.268ZM98.6192 96.6147V97.3261H100L99.1982 96.2017L98.6192 96.6147ZM95.4776 96.6147L94.8939 97.0216L95.1062 97.3261H95.4776V96.6147ZM89.5018 88.0436L90.0851 87.6368L89.6021 86.9436L89.0013 87.5379L89.5018 88.0436ZM86.2919 91.2194L85.7914 90.7136L85.5805 90.9225V91.2194H86.2919ZM86.2919 96.6147V97.3261H87.0033V96.6147H86.2919ZM84.4423 96.6147V72.7114H83.0194V96.6147H84.4423ZM83.7308 73.4228H86.2919V72H83.7308V73.4228ZM85.5805 72.7114V88.0095H87.0033V72.7114H85.5805ZM86.802 88.5053L95.0315 80.0367L94.011 79.0451L85.7815 87.5137L86.802 88.5053ZM94.5215 80.2523H98.1069V78.8295H94.5215V80.2523ZM97.609 79.0328L90.7453 85.7599L91.7413 86.7761L98.6049 80.049L97.609 79.0328ZM90.6638 86.6809L98.0397 97.0276L99.1982 96.2017L91.8224 85.855L90.6638 86.6809ZM98.6192 95.9033H95.4776V97.3261H98.6192V95.9033ZM96.0609 96.2078L90.0851 87.6368L88.9181 88.4505L94.8939 97.0216L96.0609 96.2078ZM89.0013 87.5379L85.7914 90.7136L86.792 91.7251L90.0019 88.5494L89.0013 87.5379ZM85.5805 91.2194V96.6147H87.0033V91.2194H85.5805ZM86.2919 95.9033H83.7308V97.3261H86.2919V95.9033Z" fill="url(#paint4_linear_902_3911)"/>
<path d="M8.97465 96.8879C7.3128 96.8879 5.85584 96.5009 4.60377 95.7269C3.37445 94.9301 2.41831 93.8601 1.73536 92.517C1.05241 91.1739 0.710938 89.6941 0.710938 88.0778C0.710938 86.4387 1.05241 84.959 1.73536 83.6386C2.41831 82.2955 3.37445 81.2369 4.60377 80.4629C5.85584 79.6661 7.3128 79.2678 8.97465 79.2678C10.3861 79.2678 11.5926 79.5409 12.5943 80.0873C13.6187 80.6337 14.4496 81.3735 15.0871 82.3069V72.7114H17.6481V96.6147H15.0871V93.8829C14.4496 94.7935 13.6187 95.522 12.5943 96.0683C11.5926 96.6147 10.3861 96.8879 8.97465 96.8879ZM9.31612 94.5658C10.591 94.5658 11.6609 94.2699 12.526 93.678C13.4138 93.0861 14.0854 92.3007 14.5407 91.3218C14.996 90.3202 15.2236 89.2388 15.2236 88.0778C15.2236 86.894 14.996 85.8127 14.5407 84.8338C14.0854 83.8549 13.4138 83.0695 12.526 82.4776C11.6609 81.8857 10.591 81.5898 9.31612 81.5898C8.06405 81.5898 6.98271 81.8857 6.07211 82.4776C5.16151 83.0695 4.46718 83.8549 3.98911 84.8338C3.51104 85.8127 3.27201 86.894 3.27201 88.0778C3.27201 89.2388 3.51104 90.3202 3.98911 91.3218C4.46718 92.3007 5.16151 93.0861 6.07211 93.678C6.98271 94.2699 8.06405 94.5658 9.31612 94.5658ZM62.7172 96.6147V79.5409H65.2783V82.2044C65.8929 81.3849 66.6442 80.6906 67.532 80.1214C68.4198 79.5523 69.5581 79.2678 70.9467 79.2678C72.1305 79.2678 73.2346 79.5523 74.2591 80.1214C75.3062 80.6678 76.1485 81.4987 76.786 82.6142C77.4462 83.7069 77.7762 85.0614 77.7762 86.6778V96.6147H75.2152V86.7461C75.2152 85.198 74.7713 83.9573 73.8834 83.024C72.9956 82.0678 71.846 81.5898 70.4345 81.5898C69.4784 81.5898 68.6133 81.8061 67.8393 82.2386C67.0653 82.6711 66.4393 83.2858 65.9612 84.0826C65.5059 84.8566 65.2783 85.7558 65.2783 86.7802V96.6147H62.7172ZM83.7304 96.6147V72.7114H86.2914V88.0095L94.521 79.5409H98.1065L91.2428 86.268L98.6187 96.6147H95.4771L89.5013 88.0437L86.2914 91.2194V96.6147H83.7304Z" fill="url(#paint5_linear_902_3911)"/>
<defs>
<linearGradient id="paint0_linear_902_3911" x1="76.0968" y1="-0.390912" x2="49.8044" y2="69.7125" gradientUnits="userSpaceOnUse">
<stop stop-color="#010306"/>
<stop offset="1" stop-color="#004A61"/>
</linearGradient>
<linearGradient id="paint1_linear_902_3911" x1="41.1066" y1="9.34991" x2="28.5147" y2="50.9268" gradientUnits="userSpaceOnUse">
<stop stop-color="#38A941"/>
<stop offset="1" stop-color="#22862D"/>
</linearGradient>
<linearGradient id="paint2_linear_902_3911" x1="40.3746" y1="78.4863" x2="40.3746" y2="98.1048" gradientUnits="userSpaceOnUse">
<stop stop-color="#010306"/>
<stop offset="1" stop-color="#004A61"/>
</linearGradient>
<linearGradient id="paint3_linear_902_3911" x1="40.2411" y1="78.4739" x2="40.2411" y2="97.6819" gradientUnits="userSpaceOnUse">
<stop stop-color="#010306"/>
<stop offset="1" stop-color="#004A61"/>
</linearGradient>
<linearGradient id="paint4_linear_902_3911" x1="50" y1="72" x2="50" y2="97.5993" gradientUnits="userSpaceOnUse">
<stop stop-color="#010306"/>
<stop offset="1" stop-color="#004A61"/>
</linearGradient>
<linearGradient id="paint5_linear_902_3911" x1="49.6648" y1="72.7114" x2="49.6648" y2="96.8879" gradientUnits="userSpaceOnUse">
<stop stop-color="#010306"/>
<stop offset="1" stop-color="#004A61"/>
</linearGradient>
</defs>
</svg>
